<?xml version="1.0" encoding="UTF-8" standalone="no"?>
<svg
   width="1058.84"
   zoomAndPan="magnify"
   viewBox="0 0 794.12997 236.95312"
   height="315.9375"
   preserveAspectRatio="xMidYMid"
   version="1.0"
   id="svg64"
   sodipodi:docname="header.svg"
   inkscape:version="1.3.2 (091e20e, 2023-11-25, custom)"
   xmlns:inkscape="http://www.inkscape.org/namespaces/inkscape"
   xmlns:sodipodi="http://sodipodi.sourceforge.net/DTD/sodipodi-0.dtd"
   xmlns="http://www.w3.org/2000/svg"
   xmlns:svg="http://www.w3.org/2000/svg">
  <sodipodi:namedview
     id="namedview64"
     pagecolor="#505050"
     bordercolor="#eeeeee"
     borderopacity="1"
     inkscape:showpageshadow="0"
     inkscape:pageopacity="0"
     inkscape:pagecheckerboard="0"
     inkscape:deskcolor="#505050"
     inkscape:zoom="0.58703704"
     inkscape:cx="498.26498"
     inkscape:cy="178.01262"
     inkscape:window-width="1920"
     inkscape:window-height="991"
     inkscape:window-x="-9"
     inkscape:window-y="-9"
     inkscape:window-maximized="1"
     inkscape:current-layer="svg64" />
  <defs
     id="defs16">
    <g
       id="g1" />
    <clipPath
       id="f47ed6d7ea">
      <path
         d="M 19.292969,25.410156 H 218.67187 V 224.78906 H 19.292969 Z m 0,0"
         clip-rule="nonzero"
         id="path1" />
    </clipPath>
    <clipPath
       id="b0163d2236">
      <path
         d="m 118.98438,25.410156 c -55.058599,0 -99.691411,44.632813 -99.691411,99.687504 0,55.05859 44.632812,99.6914 99.691411,99.6914 55.05468,0 99.68749,-44.63281 99.68749,-99.6914 0,-55.054691 -44.63281,-99.687504 -99.68749,-99.687504"
         clip-rule="nonzero"
         id="path2" />
    </clipPath>
    <clipPath
       id="f13d658825">
      <path
         d="M 37.804688,43.921875 H 200.16016 V 206.27734 H 37.804688 Z m 0,0"
         clip-rule="nonzero"
         id="path3" />
    </clipPath>
    <clipPath
       id="1e78facfc6">
      <path
         d="m 118.98438,43.921875 c -44.835942,0 -81.179692,36.34375 -81.179692,81.175785 0,44.83593 36.34375,81.17968 81.179692,81.17968 44.83203,0 81.17578,-36.34375 81.17578,-81.17968 0,-44.832035 -36.34375,-81.175785 -81.17578,-81.175785"
         clip-rule="nonzero"
         id="path4" />
    </clipPath>
    <clipPath
       id="64a7377bb5">
      <path
         d="M 63.460938,68.996094 H 175.74609 V 181.28516 H 63.460938 Z m 0,0"
         clip-rule="nonzero"
         id="path5" />
    </clipPath>
    <clipPath
       id="8a8fd50f59">
      <path
         d="m 119.60547,68.996094 c -31.007814,0 -56.144532,25.136718 -56.144532,56.144536 0,31.00781 25.136718,56.14453 56.144532,56.14453 31.0039,0 56.14062,-25.13672 56.14062,-56.14453 0,-31.007818 -25.13672,-56.144536 -56.14062,-56.144536"
         clip-rule="nonzero"
         id="path6" />
    </clipPath>
    <clipPath
       id="c27ac2877d">
      <path
         d="M 5.875,12.523438 H 242.82812 V 249.47656 H 5.875 Z m 0,0"
         clip-rule="nonzero"
         id="path7" />
    </clipPath>
    <clipPath
       id="26539632fa">
      <path
         d="M 124.35156,12.523438 C 58.917969,12.523438 5.875,65.566406 5.875,131 c 0,65.43359 53.042969,118.47656 118.47656,118.47656 65.4336,0 118.47656,-53.04297 118.47656,-118.47656 0,-65.433594 -53.04296,-118.476562 -118.47656,-118.476562"
         clip-rule="nonzero"
         id="path8" />
    </clipPath>
    <clipPath
       id="9e2ab7c07f">
      <path
         d="M 25.195312,31.3125 H 224.57422 v 199.375 H 25.195312 Z m 0,0"
         clip-rule="nonzero"
         id="path9" />
    </clipPath>
    <clipPath
       id="03c3c5bee3">
      <path
         d="m 124.88281,31.3125 c -55.054685,0 -99.687498,44.632812 -99.687498,99.6875 0,55.05859 44.632813,99.6875 99.687498,99.6875 55.0586,0 99.69141,-44.62891 99.69141,-99.6875 0,-55.054688 -44.63281,-99.6875 -99.69141,-99.6875"
         clip-rule="nonzero"
         id="path10" />
    </clipPath>
    <clipPath
       id="219afe5db9">
      <path
         d="M 46.125,53.351562 H 202.58203 V 209.80859 H 46.125 Z m 0,0"
         clip-rule="nonzero"
         id="path11" />
    </clipPath>
    <clipPath
       id="acb4adcb02">
      <path
         d="m 124.35156,53.351562 c -43.203122,0 -78.22656,35.023438 -78.22656,78.226558 0,43.20704 35.023438,78.23047 78.22656,78.23047 43.20313,0 78.23047,-35.02343 78.23047,-78.23047 0,-43.20312 -35.02734,-78.226558 -78.23047,-78.226558"
         clip-rule="nonzero"
         id="path12" />
    </clipPath>
    <clipPath
       id="e9a9b41de5">
      <path
         d="M 68.25,74.898438 H 180.45312 V 187.10156 H 68.25 Z m 0,0"
         clip-rule="nonzero"
         id="path13" />
    </clipPath>
    <clipPath
       id="393c2bfab0">
      <path
         d="M 124.35156,74.898438 C 93.367188,74.898438 68.25,100.01563 68.25,131 c 0,30.98437 25.117188,56.10156 56.10156,56.10156 30.98438,0 56.10156,-25.11719 56.10156,-56.10156 0,-30.98437 -25.11718,-56.101562 -56.10156,-56.101562"
         clip-rule="nonzero"
         id="path14" />
    </clipPath>
    <clipPath
       id="d072f0e4c0">
      <path
         d="M 68.25,74.898438 H 180.53906 V 187.18359 H 68.25 Z m 0,0"
         clip-rule="nonzero"
         id="path15" />
    </clipPath>
    <clipPath
       id="c290e4f899">
      <path
         d="m 124.39453,74.898438 c -31.007811,0 -56.14453,25.136722 -56.14453,56.144532 0,31.00781 25.136719,56.14062 56.14453,56.14062 31.00781,0 56.14453,-25.13281 56.14453,-56.14062 0,-31.00781 -25.13672,-56.144532 -56.14453,-56.144532"
         clip-rule="nonzero"
         id="path16" />
    </clipPath>
  </defs>
  <g
     fill="#ffffff"
     fill-opacity="1"
     id="g19"
     transform="translate(-5.875,-12.523438)">
    <g
       transform="translate(262.99967,206.54241)"
       id="g18">
      <g
         id="g17">
        <path
           d="M 63.300781,-116.61719 88.8125,-137.53516 H 53.585938 l -9.71875,20.91797 z M 54.125,1.890625 c 34.011719,0 47.64453,-17.953125 47.64453,-44.8125 V -109.46094 H 72.75 v 59.250002 c 0,15.65625 -3.375,23.757813 -18.625,23.757813 -15.253906,0 -18.492188,-8.101563 -18.492188,-23.757813 V -109.46094 H 6.480469 v 66.539065 c 0,26.859375 13.628906,44.8125 47.644531,44.8125 z m 0,0"
           id="path17" />
      </g>
    </g>
  </g>
  <g
     fill="#ffffff"
     fill-opacity="1"
     id="g22"
     transform="translate(-5.875,-12.523438)">
    <g
       transform="translate(384.73021,206.54241)"
       id="g21">
      <g
         id="g20">
        <path
           d="M 72.074219,-32.933594 45.484375,-109.46094 H 6.480469 V 0 H 35.632812 V -76.800781 L 62.222656,0 H 101.23047 V -109.46094 H 72.074219 Z m 0,0"
           id="path19" />
      </g>
    </g>
  </g>
  <g
     fill="#ffffff"
     fill-opacity="1"
     id="g25"
     transform="translate(-5.875,-12.523438)">
    <g
       transform="translate(505.786,206.54241)"
       id="g24">
      <g
         id="g23">
        <path
           d="M 35.632812,0 V -109.46094 H 6.480469 V 0 Z m 0,0"
           id="path22" />
      </g>
    </g>
  </g>
  <g
     fill="#ffffff"
     fill-opacity="1"
     id="g28"
     transform="translate(-5.875,-12.523438)">
    <g
       transform="translate(561.25447,206.54241)"
       id="g27">
      <g
         id="g26">
        <path
           d="m 63.300781,1.890625 c 15.523438,0 26.726563,-4.183594 36.578125,-9.988281 L 88.8125,-31.988281 c -9.3125,5.128906 -17.546875,6.75 -25.511719,6.75 -16.601562,0 -28.613281,-12.015625 -28.613281,-29.289063 v -0.273437 c 0,-18.625 12.148438,-29.421875 28.613281,-29.421875 7.964844,0 16.199219,1.621094 25.511719,6.75 l 11.066406,-23.890624 c -9.988281,-5.94141 -21.191406,-10.125 -36.578125,-10.125 -35.363281,0 -58.308593,22.67578 -58.308593,56.687499 v 0.273437 c 0,34.011719 23.082031,56.417969 58.308593,56.417969 z m 0,0"
           id="path25" />
      </g>
    </g>
  </g>
  <g
     fill="#ffffff"
     fill-opacity="1"
     id="g31"
     transform="translate(-5.875,-12.523438)">
    <g
       transform="translate(679.07135,206.54241)"
       id="g30">
      <g
         id="g29">
        <path
           d="m 63.03125,1.890625 c 34.824219,0 57.90234,-25.511719 57.90234,-56.824219 v -0.136718 c 0,-31.445313 -22.945309,-56.417968 -57.90234,-56.417968 -35.09375,0 -58.039062,24.972655 -58.039062,56.417968 v 0.136718 c 0,31.3125 23.082031,56.824219 58.039062,56.824219 z m 0,-27.265625 c -16.464844,0 -28.34375,-12.011719 -28.34375,-29.558594 v -0.136718 c 0,-17.542969 11.742188,-29.152344 28.34375,-29.152344 16.46875,0 28.210938,11.609375 28.210938,29.152344 v 0.136718 c 0,17.546875 -11.878907,29.558594 -28.210938,29.558594 z m 0,0"
           id="path28" />
      </g>
    </g>
  </g>
  <g
     clip-path="url(#f47ed6d7ea)"
     id="g33"
     transform="translate(-5.875,-12.523438)">
    <g
       clip-path="url(#b0163d2236)"
       id="g32">
      <path
         fill="#ffffff"
         d="M 19.292969,25.410156 H 218.67187 V 224.78906 H 19.292969 Z m 0,0"
         fill-opacity="1"
         fill-rule="nonzero"
         id="path31" />
    </g>
  </g>
  <g
     clip-path="url(#f13d658825)"
     id="g35"
     transform="translate(-5.875,-12.523438)">
    <g
       clip-path="url(#1e78facfc6)"
       id="g34">
      <path
         fill="#050672"
         d="M 37.804688,43.921875 H 200.16016 V 206.27734 H 37.804688 Z m 0,0"
         fill-opacity="1"
         fill-rule="nonzero"
         id="path33" />
    </g>
  </g>
  <g
     clip-path="url(#64a7377bb5)"
     id="g37"
     transform="translate(-5.875,-12.523438)">
    <g
       clip-path="url(#8a8fd50f59)"
       id="g36">
      <path
         stroke-linecap="butt"
         transform="matrix(0.749198,0,0,0.749198,63.460706,68.99799)"
         fill="none"
         stroke-linejoin="miter"
         d="m 74.939775,-0.00253154 c -41.387983,0 -74.939466438,33.55148354 -74.939466438,74.93946654 0,41.387985 33.551483438,74.939465 74.939466438,74.939465 41.382765,0 74.934255,-33.55148 74.934255,-74.939465 0,-41.387983 -33.55149,-74.93946654 -74.934255,-74.93946654"
         stroke="#ffffff"
         stroke-width="34"
         stroke-opacity="1"
         stroke-miterlimit="4"
         id="path35" />
    </g>
  </g>
  <path
     stroke-linecap="butt"
     fill="none"
     stroke-linejoin="miter"
     d="M 24.402344,112.57422 H 203.3125"
     stroke="#ffffff"
     stroke-width="18.7321"
     stroke-opacity="1"
     stroke-miterlimit="4"
     id="path37" />
  <path
     stroke-linecap="butt"
     fill="none"
     stroke-linejoin="miter"
     d="M 113.10938,24.449218 V 201.86326"
     stroke="#ffffff"
     stroke-width="18.7143"
     stroke-opacity="1"
     stroke-miterlimit="4"
     id="path38" />
  <g
     clip-path="url(#c27ac2877d)"
     id="g40"
     transform="translate(-5.875,-12.523438)">
    <g
       clip-path="url(#26539632fa)"
       id="g39">
      <path
         fill="#ffffff"
         d="M 5.875,12.523438 H 242.82812 V 249.47656 H 5.875 Z m 0,0"
         fill-opacity="1"
         fill-rule="nonzero"
         id="path39" />
    </g>
  </g>
  <g
     clip-path="url(#9e2ab7c07f)"
     id="g42"
     transform="translate(-5.875,-12.523438)">
    <g
       clip-path="url(#03c3c5bee3)"
       id="g41">
      <path
         fill="#000033"
         d="M 25.195312,31.3125 H 224.57422 v 199.375 H 25.195312 Z m 0,0"
         fill-opacity="1"
         fill-rule="nonzero"
         id="path40" />
    </g>
  </g>
  <g
     clip-path="url(#219afe5db9)"
     id="g44"
     transform="translate(-5.875,-12.523438)">
    <g
       clip-path="url(#acb4adcb02)"
       id="g43">
      <path
         fill="#ffffff"
         d="M 46.125,53.351562 H 202.58203 V 209.80859 H 46.125 Z m 0,0"
         fill-opacity="1"
         fill-rule="nonzero"
         id="path42" />
    </g>
  </g>
  <g
     clip-path="url(#e9a9b41de5)"
     id="g46"
     transform="translate(-5.875,-12.523438)">
    <g
       clip-path="url(#393c2bfab0)"
       id="g45">
      <path
         fill="#ffffff"
         d="M 68.25,74.898438 H 180.45312 V 187.10156 H 68.25 Z m 0,0"
         fill-opacity="1"
         fill-rule="nonzero"
         id="path44" />
    </g>
  </g>
  <g
     clip-path="url(#d072f0e4c0)"
     id="g48"
     transform="translate(-5.875,-12.523438)">
    <g
       clip-path="url(#c290e4f899)"
       id="g47">
      <path
         stroke-linecap="butt"
         transform="matrix(0.749198,0,0,0.749198,68.251398,74.899224)"
         fill="none"
         stroke-linejoin="miter"
         d="m 74.9376,-0.00104967 c -41.387983,0 -74.93946661,33.55148267 -74.93946661,74.93946667 0,41.387983 33.55148361,74.934253 74.93946661,74.934253 41.38798,0 74.93947,-33.54627 74.93947,-74.934253 0,-41.387984 -33.55149,-74.93946667 -74.93947,-74.93946667"
         stroke="#000033"
         stroke-width="42"
         stroke-opacity="1"
         stroke-miterlimit="4"
         id="path46" />
    </g>
  </g>
  <path
     stroke-linecap="butt"
     fill="none"
     stroke-linejoin="miter"
     d="M 30.300781,118.47656 H 209.21094"
     stroke="#000033"
     stroke-width="11.9886"
     stroke-opacity="1"
     stroke-miterlimit="4"
     id="path48" />
  <path
     stroke-linecap="butt"
     fill="none"
     stroke-linejoin="miter"
     d="M 119.00782,30.351562 V 207.76169"
     stroke="#000033"
     stroke-width="11.9772"
     stroke-opacity="1"
     stroke-miterlimit="4"
     id="path49" />
  <g
     fill="#ffffff"
     fill-opacity="1"
     id="g52"
     transform="translate(-5.875,-12.523438)">
    <g
       transform="translate(518.21769,72.265128)"
       id="g51">
      <g
         id="g50">
        <path
           d="m 25.375,-6.640625 c 2.414062,0 4.753906,-0.347656 7.015625,-1.046875 2.269531,-0.707031 4.023437,-1.609375 5.265625,-2.703125 V -16.53125 H 26.828125 v -6.859375 H 46.15625 v 16.3125 c -2.355469,2.40625 -5.417969,4.292969 -9.1875,5.65625 C 33.207031,-0.0546875 29.257812,0.625 25.125,0.625 c -7.21875,0 -12.773438,-1.992188 -16.65625,-5.984375 -3.886719,-4 -5.828125,-9.675781 -5.828125,-17.03125 0,-7.300781 1.953125,-12.898437 5.859375,-16.796875 3.90625,-3.894531 9.519531,-5.84375 16.84375,-5.84375 10.414062,0 17.039062,3.855469 19.875,11.5625 l -8.5625,2.578125 c -0.929688,-2.238281 -2.382812,-3.9375 -4.359375,-5.09375 -1.96875,-1.15625 -4.289063,-1.734375 -6.953125,-1.734375 -4.367188,0 -7.683594,1.324219 -9.953125,3.96875 C 13.128906,-31.101562 12,-27.316406 12,-22.390625 c 0,5.023437 1.164062,8.902344 3.5,11.640625 2.34375,2.742188 5.632812,4.109375 9.875,4.109375 z m 0,0"
           id="path50" />
      </g>
    </g>
  </g>
  <g
     fill="#ffffff"
     fill-opacity="1"
     id="g55"
     transform="translate(-5.875,-12.523438)">
    <g
       transform="translate(575.85222,72.265128)"
       id="g54">
      <g
         id="g53">
        <path
           d="M 34.796875,0 24.5,-16.84375 H 13.609375 V 0 H 4.3125 v -44.359375 h 22.171875 c 5.289063,0 9.375,1.140625 12.25,3.421875 2.875,2.273438 4.3125,5.539062 4.3125,9.796875 0,3.105469 -0.886719,5.789063 -2.65625,8.046875 C 38.628906,-20.832031 36.25,-19.347656 33.25,-18.640625 L 45.25,0 Z M 33.6875,-30.765625 c 0,-4.257813 -2.730469,-6.390625 -8.1875,-6.390625 H 13.609375 V -24.0625 H 25.75 c 2.601562,0 4.578125,-0.582031 5.921875,-1.75 1.34375,-1.175781 2.015625,-2.828125 2.015625,-4.953125 z m 0,0"
           id="path52" />
      </g>
    </g>
  </g>
  <g
     fill="#ffffff"
     fill-opacity="1"
     id="g58"
     transform="translate(-5.875,-12.523438)">
    <g
       transform="translate(629.89754,72.265128)"
       id="g57">
      <g
         id="g56">
        <path
           d="m 22.765625,0.625 c -6.105469,0 -10.78125,-1.488281 -14.03125,-4.46875 C 5.492188,-6.820312 3.875,-11.082031 3.875,-16.625 v -27.734375 h 9.28125 v 27.015625 c 0,3.5 0.832031,6.164062 2.5,7.984375 1.675781,1.8125 4.128906,2.71875 7.359375,2.71875 3.3125,0 5.859375,-0.945313 7.640625,-2.84375 1.789062,-1.90625 2.6875,-4.628906 2.6875,-8.171875 V -44.359375 H 42.625 v 27.265625 c 0,5.625 -1.742188,9.984375 -5.21875,13.078125 C 33.9375,-0.921875 29.054688,0.625 22.765625,0.625 Z m 0,0"
           id="path55" />
      </g>
    </g>
  </g>
  <g
     fill="#ffffff"
     fill-opacity="1"
     id="g61"
     transform="translate(-5.875,-12.523438)">
    <g
       transform="translate(683.94285,72.265128)"
       id="g60">
      <g
         id="g59">
        <path
           d="m 40.8125,-30.328125 c 0,2.855469 -0.652344,5.40625 -1.953125,7.65625 -1.304687,2.25 -3.167969,3.992187 -5.59375,5.21875 C 30.835938,-16.234375 27.957031,-15.625 24.625,-15.625 H 13.609375 V 0 H 4.3125 V -44.359375 H 24.25 c 5.300781,0 9.382812,1.226563 12.25,3.671875 2.875,2.4375 4.3125,5.890625 4.3125,10.359375 z m -9.359375,0.15625 c 0,-4.65625 -2.75,-6.984375 -8.25,-6.984375 h -9.59375 v 14.390625 h 9.84375 c 2.5625,0 4.535156,-0.632813 5.921875,-1.90625 1.382812,-1.269531 2.078125,-3.101563 2.078125,-5.5 z m 0,0"
           id="path58" />
      </g>
    </g>
  </g>
  <g
     fill="#ffffff"
     fill-opacity="1"
     id="g64"
     transform="translate(-5.875,-12.523438)">
    <g
       transform="translate(734.43042,72.265128)"
       id="g63">
      <g
         id="g62">
        <path
           d="m 47.453125,-22.390625 c 0,4.625 -0.917969,8.695313 -2.75,12.203125 -1.824219,3.5 -4.4375,6.179688 -7.84375,8.03125 C 33.460938,-0.300781 29.5,0.625 24.96875,0.625 18,0.625 12.535156,-1.425781 8.578125,-5.53125 c -3.960937,-4.101562 -5.9375,-9.722656 -5.9375,-16.859375 0,-7.113281 1.972656,-12.664063 5.921875,-16.65625 3.945312,-3.988281 9.4375,-5.984375 16.46875,-5.984375 7.03125,0 12.523438,2.015625 16.484375,6.046875 3.957031,4.03125 5.9375,9.5625 5.9375,16.59375 z m -9.484375,0 c 0,-4.78125 -1.136719,-8.53125 -3.40625,-11.25 -2.261719,-2.71875 -5.4375,-4.078125 -9.53125,-4.078125 -4.15625,0 -7.371094,1.351562 -9.640625,4.046875 C 13.128906,-30.972656 12,-27.210938 12,-22.390625 c 0,4.875 1.15625,8.714844 3.46875,11.515625 2.320312,2.804688 5.488281,4.203125 9.5,4.203125 4.15625,0 7.359375,-1.363281 9.609375,-4.09375 2.257813,-2.726563 3.390625,-6.601563 3.390625,-11.625 z m 0,0"
           id="path61" />
      </g>
    </g>
  </g>
</svg>
